HIERARCHY
ROOT reference
{
  OFFSET 0 0 0
  CHANNELS 6 Xposition Yposition Zposition Zrotation Xrotation Yrotation
  JOINT Hips
  {
    OFFSET 4.23622 87.5229 82.7325
    CHANNELS 6 Xposition Yposition Zposition Zrotation Xrotation Yrotation
    JOINT Spine
    {
      OFFSET 0 7.86299 0
      CHANNELS 6 Xposition Yposition Zposition Zrotation Xrotation Yrotation
      JOINT Spine1
      {
        OFFSET 0 22.6654 0
        CHANNELS 6 Xposition Yposition Zposition Zrotation Xrotation Yrotation
        JOINT Neck
        {
          OFFSET 0 22.5723 2.05203
          CHANNELS 6 Xposition Yposition Zposition Zrotation Xrotation Yrotation
          JOINT Head
          {
            OFFSET 0 13.4246 -1.9178
            CHANNELS 6 Xposition Yposition Zposition Zrotation Xrotation Yrotation
            End Site
            {
              OFFSET 0 23.9725 0
            }
          }
        }
        JOINT LeftShoulder
        {
          OFFSET 3.7941 20.1358 -0.319195
          CHANNELS 6 Xposition Yposition Zposition Zrotation Xrotation Yrotation
          JOINT LeftArm
          {
            OFFSET 12.7665 0 0
            CHANNELS 6 Xposition Yposition Zposition Zrotation Xrotation Yrotation
            JOINT LeftForeArm
            {
              OFFSET 28.396 0 0
              CHANNELS 6 Xposition Yposition Zposition Zrotation Xrotation Yrotation
              JOINT LeftHand
              {
                OFFSET 28.7929 0 0
                CHANNELS 6 Xposition Yposition Zposition Zrotation Xrotation Yrotation
                End Site
                {
                  OFFSET 14.3835 0 0
                }
              }
            }
          }
        }
        JOINT RightShoulder
        {
          OFFSET -3.85764 20.1358 -0.319195
          CHANNELS 6 Xposition Yposition Zposition Zrotation Xrotation Yrotation
          JOINT RightArm
          {
            OFFSET -12.7665 0 0
            CHANNELS 6 Xposition Yposition Zposition Zrotation Xrotation Yrotation
            JOINT RightForeArm
            {
              OFFSET -28.396 0 0
              CHANNELS 6 Xposition Yposition Zposition Zrotation Xrotation Yrotation
              JOINT RightHand
              {
                OFFSET -28.7929 0 0
                CHANNELS 6 Xposition Yposition Zposition Zrotation Xrotation Yrotation
                End Site
                {
                  OFFSET -14.3835 0 0
                }
              }
            }
          }
        }
      }
    }
    JOINT LeftUpLeg
    {
      OFFSET 9.58901 0 0
      CHANNELS 6 Xposition Yposition Zposition Zrotation Xrotation Yrotation
      JOINT LeftLeg
      {
        OFFSET 0 -41.7092 0
        CHANNELS 6 Xposition Yposition Zposition Zrotation Xrotation Yrotation
        JOINT LeftFoot
        {
          OFFSET 0 -41.5308 0
          CHANNELS 6 Xposition Yposition Zposition Zrotation Xrotation Yrotation
          JOINT LeftToeBase
          {
            OFFSET 0 -6.23286 14.3835
            CHANNELS 6 Xposition Yposition Zposition Zrotation Xrotation Yrotation
            End Site
            {
              OFFSET 0 0 3.8356
            }
          }
        }
      }
    }
    JOINT RightUpLeg
    {
      OFFSET -9.58901 0 0
      CHANNELS 6 Xposition Yposition Zposition Zrotation Xrotation Yrotation
      JOINT RightLeg
      {
        OFFSET 0 -41.7092 0
        CHANNELS 6 Xposition Yposition Zposition Zrotation Xrotation Yrotation
        JOINT RightFoot
        {
          OFFSET 0 -41.5308 0
          CHANNELS 6 Xposition Yposition Zposition Zrotation Xrotation Yrotation
          JOINT RightToeBase
          {
            OFFSET 0 -6.23286 14.3835
            CHANNELS 6 Xposition Yposition Zposition Zrotation Xrotation Yrotation
            End Site
            {
              OFFSET 0 0 3.8356
            }
          }
        }
      }
    }
  }
}
MOTION
Frames:	5
Frame Time:	0.004
0 0 0 0 0 -0 -25.4376 85.6262 -195.528 -1.35218 -0.861245 5.21229 0 7.86299 2.84217e-014 1.81837 -6.97866 -0.673724 1.77636e-015 22.6654 -2.84217e-014 -0.0637134 0.340345 -0.784524 1.77636e-015 22.5723 2.05203 0.324392 20.207 0.840512 -3.55271e-015 13.4246 -1.9178 1.52641 6.12535 1.02456 3.7941 20.1358 -0.319195 5.05656 7.35893 4.11336 12.7665 0 0 -12.6027 2.84973 -6.3226 28.396 2.84217e-014 0 1.76541 3.19983 -3.67579 28.7929 0 -2.84217e-014 14.0531 2.37665 -7.09854 -3.85764 20.1358 -0.319195 -7.47681 11.2195 7.7169 -12.7665 0 0 9.89241 7.99362 1.19431 -28.396 2.84217e-014 0 -0.640035 -2.4 3.18083 -28.7929 -1.42109e-014 -2.84217e-014 -17.0206 -2.26901 -0.757558 9.58901 1.42109e-014 2.84217e-014 3.33366 4.14928 -0.248615 0 -41.7092 -2.84217e-014 -3.7377 -0.0331383 -7.38638 3.55271e-015 -41.5308 0 3.54461 -9.83153 21.0209 7.10543e-015 -6.23286 14.3835 3.97569e-016 7.95139e-016 -0 -9.58901 0 0 -0.86792 1.20706 2.21195 0 -41.7092 0 3.14338 3.26706 -6.53001 0 -41.5308 0 0.941409 -8.54456 -11.6686 0 -6.23286 14.3835 -2.98177e-016 0 1.59028e-015 
0 0 0 0 0 -0 -25.4376 85.6262 -195.528 -1.35218 -0.861245 5.21229 0 7.86299 2.84217e-014 1.81837 -6.97866 -0.673724 1.77636e-015 22.6654 -2.84217e-014 -0.0686698 0.340345 -0.784524 -1.77636e-015 22.5723 2.05203 0.33092 20.2195 0.835061 3.55271e-015 13.4246 -1.9178 1.52711 6.11573 1.01959 3.7941 20.1358 -0.319195 5.03454 7.352 4.1133 12.7665 -2.84217e-014 0 -12.6177 2.87997 -6.32277 28.396 -2.84217e-014 0 1.76616 3.19978 -3.68919 28.7929 2.84217e-014 2.84217e-014 13.9857 2.38784 -7.08512 -3.85764 20.1358 -0.319195 -7.47436 11.2228 7.71699 -12.7665 1.42109e-014 0 9.90335 8.01002 1.19436 -28.396 -1.42109e-014 0 -0.637824 -2.41577 3.18087 -28.7929 0 2.84217e-014 -17.0214 -2.28561 -0.752111 9.58901 1.42109e-014 2.84217e-014 3.33315 4.14928 -0.241456 -3.55271e-015 -41.7092 -2.84217e-014 -3.73769 -0.03314 -7.36349 0 -41.5308 0 3.56548 -9.84061 20.9989 -7.10543e-015 -6.23286 14.3835 0 0 -0 -9.58901 0 0 -0.867359 1.20708 2.18531 -1.06581e-014 -41.7092 2.84217e-014 3.14226 3.26719 -6.51036 0 -41.5308 2.84217e-014 0.963706 -8.56051 -11.6751 0 -6.23286 14.3835 -1.98785e-016 -7.95139e-016 -3.18055e-015 
0 0 0 0 0 -0 -25.4376 85.6262 -195.528 -1.35218 -0.861245 5.21229 0 7.86299 2.84217e-014 1.81837 -6.97866 -0.673724 1.77636e-015 22.6654 -2.84217e-014 -0.077217 0.340345 -0.784524 -1.77636e-015 22.5723 2.05203 0.347112 20.2086 0.825101 0 13.4246 -1.9178 1.53317 6.14745 1.0099 3.7941 20.1358 -0.319195 5.02202 7.36804 4.11345 12.7665 2.84217e-014 0 -12.633 2.88602 -6.3228 28.396 2.84217e-014 2.84217e-014 1.7664 3.19674 -3.69687 28.7929 0 -2.84217e-014 13.957 2.38847 -7.07087 -3.85764 20.1358 -0.319195 -7.46562 11.2344 7.7173 -12.7665 -1.42109e-014 0 9.90735 8.00341 1.19434 -28.396 0 -2.84217e-014 -0.627335 -2.42507 3.18716 -28.7929 1.42109e-014 0 -17.0377 -2.29245 -0.769798 9.58901 1.42109e-014 2.84217e-014 3.33441 4.14927 -0.258944 1.77636e-015 -41.7092 -2.84217e-014 -3.74783 -0.021504 -7.38058 0 -41.5308 0 3.5623 -9.84294 21.031 0 -6.23286 14.3835 -3.97569e-016 1.59028e-015 -0 -9.58901 0 0 -0.86755 1.20708 2.19441 0 -41.7092 0 3.14341 3.26706 -6.53065 -7.10543e-015 -41.5308 -2.84217e-014 0.935772 -8.55125 -11.6552 0 -6.23286 14.3835 4.96962e-016 -7.95139e-016 1.59028e-015 
0 0 0 0 0 -0 -25.4376 85.6262 -195.528 -1.351 -0.861343 5.21441 3.55271e-015 7.86299 -2.84217e-014 1.82461 -6.98129 -0.673493 -1.77636e-015 22.6654 0 -0.090073 0.340345 -0.784524 -3.55271e-015 22.5723 2.05203 0.35392 20.2125 0.823207 0 13.4246 -1.9178 1.54947 6.15929 1.00946 3.7941 20.1358 -0.319195 5.0088 7.3672 4.11344 12.7665 0 0 -12.6424 2.89929 -6.32288 28.396 -2.84217e-014 0 1.76545 3.17955 -3.69973 28.7929 1.42109e-014 -2.84217e-014 13.9239 2.37398 -7.06317 -3.85764 20.1358 -0.319195 -7.45628 11.2339 7.71729 -12.7665 1.42109e-014 -2.84217e-014 9.92165 8.01459 1.19437 -28.396 2.84217e-014 0 -0.607958 -2.48347 3.19341 -28.7929 0 0 -17.1633 -2.34003 -0.839185 9.58901 1.42109e-014 -2.84217e-014 3.33441 4.14927 -0.258978 1.77636e-015 -41.7092 0 -3.74406 0.010356 -7.56101 0 -41.5308 0 3.59631 -9.8612 21.2068 7.10543e-015 -6.23286 14.3835 -4.41391e-032 7.95139e-016 3.18055e-015 -9.58901 0 0 -0.867173 1.20537 2.17957 3.55271e-015 -41.7092 2.84217e-014 3.14318 3.26709 -6.52658 7.10543e-015 -41.5308 0 0.954885 -8.56 -11.6472 0 -6.23286 14.3835 9.93923e-017 2.38542e-015 -3.18055e-015 
0 0 0 0 0 -0 -25.4376 85.6262 -195.528 -1.36268 -0.861316 5.20193 3.55271e-015 7.86299 0 1.86536 -6.99137 -0.662253 0 22.6654 0 -0.119901 0.353551 -0.780182 -1.77636e-015 22.5723 2.05203 0.365944 20.1905 0.813552 5.32907e-015 13.4246 -1.9178 1.54642 6.20248 0.998947 3.7941 20.1358 -0.319195 4.99041 7.38067 4.11356 12.7665 -2.84217e-014 -2.84217e-014 -12.6608 2.89638 -6.32584 28.396 2.84217e-014 2.84217e-014 1.76502 3.16203 -3.71243 28.7929 -1.42109e-014 -2.84217e-014 13.916 2.35912 -7.04974 -3.85764 20.1358 -0.319195 -7.45166 11.2359 7.71734 -12.7665 0 0 9.93188 8.01615 1.19437 -28.396 -1.42109e-014 2.84217e-014 -0.593267 -2.47152 3.19835 -28.7929 2.84217e-014 2.84217e-014 -17.184 -2.32028 -0.892232 9.58901 0 -2.84217e-014 3.3345 4.14927 -0.260121 0 -41.7092 -2.84217e-014 -3.74446 -0.000795 -7.37767 -3.55271e-015 -41.5308 2.84217e-014 3.59069 -9.857 21.0431 7.10543e-015 -6.23286 14.3835 4.41391e-032 -7.95139e-016 3.18055e-015 -9.58901 0 0 -0.86705 1.20341 2.17728 3.55271e-015 -41.7092 0 3.14298 3.26747 -6.52231 -7.10543e-015 -41.5308 -2.84217e-014 0.951072 -8.5487 -11.6334 0 -6.23286 14.3835 -9.93923e-017 7.95139e-016 -0 
